<svg xmlns="http://www.w3.org/2000/svg" width="23" height="36" fill="none" viewBox="0 0 23 36"><path fill="#fff" d="M12.9236 14.4V25.3237L16.1823 22.0275C16.4566 21.7425 16.7903 21.6 17.1833 21.6C17.5762 21.6 17.9136 21.7425 18.1953 22.0275C18.4771 22.3125 18.618 22.6537 18.618 23.0512C18.618 23.4487 18.4771 23.7862 18.1953 24.0637L12.501 29.8237C12.2192 30.1012 11.8818 30.24 11.4889 30.24C11.0959 30.24 10.7622 30.1012 10.4879 29.8237L4.79351 24.0637C4.51917 23.7862 4.382 23.4487 4.382 23.0512C4.382 22.6537 4.51917 22.3125 4.79351 22.0275C5.06785 21.7425 5.4015 21.6 5.79447 21.6C6.18745 21.6 6.52481 21.7425 6.80656 22.0275L10.0764 25.3237V14.4C10.0764 14.0025 10.2154 13.6631 10.4935 13.3818C10.7715 13.1006 11.107 12.96 11.5 12.96C11.893 12.96 12.2285 13.1006 12.5065 13.3818C12.7846 13.6631 12.9236 14.0025 12.9236 14.4ZM2.9584 28.8H7.47388L9.48693 30.8475C10.043 31.41 10.714 31.6912 11.5 31.6912C12.2859 31.6912 12.957 31.41 13.513 30.8475L15.5261 28.8H20.0416C20.8275 28.8 21.4985 29.0812 22.0546 29.6437C22.6107 30.2062 22.8888 30.885 22.8888 31.68V33.12C22.8888 33.915 22.6107 34.5937 22.0546 35.1562C21.4985 35.7187 20.8275 36 20.0416 36H2.9584C2.17246 36 1.50144 35.7187 0.945345 35.1562C0.389252 34.5937 0.111206 33.915 0.111206 33.12V31.68C0.111206 30.885 0.389252 30.2062 0.945345 29.6437C1.50144 29.0812 2.17246 28.8 2.9584 28.8ZM19.3298 31.32C19.0332 31.32 18.7811 31.425 18.5735 31.635C18.3659 31.845 18.2621 32.1 18.2621 32.4C18.2621 32.7 18.3659 32.955 18.5735 33.165C18.7811 33.375 19.0332 33.48 19.3298 33.48C19.6264 33.48 19.8785 33.375 20.0861 33.165C20.2937 32.955 20.3975 32.7 20.3975 32.4C20.3975 32.1 20.2937 31.845 20.0861 31.635C19.8785 31.425 19.6264 31.32 19.3298 31.32Z"/></svg>